<svg width="3860" height="3520" viewBox="0 0 3860 3520" fill="none" xmlns="http://www.w3.org/2000/svg">
<path d="M1162.92 1499.49C1155.48 1467.79 1135.16 1439.24 1105.45 1418.72C1075.73 1398.21 1038.46 1386.99 1000 1387C935.938 1387 880.3 1417.54 852.592 1462.24C820.012 1465.2 789.882 1478.17 767.992 1498.66C746.102 1519.15 733.996 1545.72 734 1573.25C734 1634.9 793.628 1685 867 1685H1155.17C1216.35 1685 1266 1643.28 1266 1591.88C1266 1542.7 1220.56 1502.85 1162.92 1499.49Z" fill="white" fill-opacity="0.5"/>
<path d="M2091.02 1489.45C2063.34 1448.79 2019.22 1419.57 1966.19 1406.75C1913.15 1393.94 1854.5 1398.34 1800.25 1419.2C1709.87 1453.93 1647.93 1527.15 1633.06 1605.18C1588.7 1627.01 1553.22 1661.63 1533.44 1702.37C1513.66 1743.12 1510.97 1787.13 1525.89 1825.94C1559.28 1912.84 1670.54 1951.13 1774.04 1911.36L2180.56 1755.14C2266.87 1721.97 2314.31 1636.24 2286.47 1563.79C2259.83 1494.48 2174.14 1462.93 2091.02 1489.45Z" fill="white" fill-opacity="0.5"/>
<path d="M1422.99 1605.91C1415.4 1572.4 1394.7 1542.22 1364.43 1520.53C1334.16 1498.84 1296.18 1486.99 1257 1487C1191.73 1487 1135.05 1519.29 1106.82 1566.54C1073.63 1569.66 1042.93 1583.37 1020.63 1605.03C998.33 1626.69 985.996 1654.77 986 1683.88C986 1749.04 1046.75 1802 1121.5 1802H1415.08C1477.41 1802 1528 1757.9 1528 1703.56C1528 1651.59 1481.7 1609.46 1422.99 1605.91Z" fill="white" fill-opacity="0.5"/>
<path d="M1787.92 1643.66C1777.8 1599.51 1750.19 1559.75 1709.81 1531.18C1669.42 1502.6 1618.77 1486.99 1566.5 1487C1479.44 1487 1403.82 1529.54 1366.17 1591.79C1321.89 1595.91 1280.95 1613.97 1251.2 1642.5C1221.45 1671.04 1204.99 1708.03 1205 1746.38C1205 1832.23 1286.04 1902 1385.75 1902H1777.38C1860.52 1902 1928 1843.9 1928 1772.31C1928 1703.84 1866.24 1648.33 1787.92 1643.66Z" fill="white" fill-opacity="0.5"/>
<path d="M2532.06 1354.55C2477.32 1308.57 2404.73 1284.76 2326.69 1287.2C2248.65 1289.63 2170.02 1318.15 2104.21 1367.89C1994.58 1450.71 1939.83 1576.2 1951.64 1690.42C1899.8 1737.73 1865.43 1799.43 1855.11 1863.66C1844.8 1927.89 1859.28 1990.13 1895.76 2038.42C1977.44 2146.53 2145.86 2157.31 2271.42 2062.46L2764.56 1689.91C2869.26 1610.82 2898.96 1473.46 2830.85 1383.31C2765.71 1297.07 2635.13 1285.92 2532.06 1354.55Z" fill="white" fill-opacity="0.5"/>
<path d="M966.473 1529.59C966.368 1453.81 941.123 1380.88 895.05 1323.26C848.977 1265.64 784.934 1226.91 713.86 1213.67C595.484 1191.59 479.519 1242.95 409.069 1336.62C347.592 1332.23 286.332 1351.79 237.059 1391.56C187.786 1431.33 153.976 1488.5 142.126 1552.08C115.576 1694.44 204.184 1830.68 339.763 1855.97L872.248 1955.28C985.299 1976.36 1095.02 1897.13 1117.16 1778.43C1138.33 1664.89 1071.53 1557.19 966.473 1529.59Z" fill="white" fill-opacity="0.5"/>
<path d="M1561.53 1903.82C1524.15 1867.82 1479.5 1843.88 1435.21 1836.1C1390.92 1828.31 1349.73 1837.16 1318.68 1861.14C1266.96 1901.06 1252.25 1974.89 1274.1 2049.46C1250.71 2073.55 1239.22 2108.95 1241.81 2148.86C1244.41 2188.77 1260.91 2230.36 1288.15 2265.66C1349.14 2344.68 1446.86 2371.75 1506.1 2326.02L1738.79 2146.45C1788.19 2108.32 1787.01 2023.9 1736.15 1958C1687.51 1894.97 1611.38 1872.2 1561.53 1903.82Z" fill="white" fill-opacity="0.5"/>
<path d="M2301 1312.58C2238.43 1277.71 2173.89 1267.74 2118.39 1284.37C2062.89 1300.99 2019.88 1343.18 1996.71 1403.73C1958.1 1504.57 1980.52 1637.03 2045.7 1746.32C2031.48 1801.95 2037.08 1868.43 2061.42 1932.99C2085.76 1997.55 2127.12 2055.64 2177.56 2096.09C2290.5 2186.67 2418.22 2166.43 2462.45 2050.94L2636.15 1597.36C2673.02 1501.06 2626.53 1361.6 2532.36 1286.07C2442.29 1213.82 2341.88 1226.79 2301 1312.58Z" fill="white" fill-opacity="0.5"/>
<path d="M1876.8 1878.17C1837.52 1839.94 1790.95 1814.15 1745.05 1805.21C1699.15 1796.28 1656.77 1804.75 1625.13 1829.18C1572.43 1869.85 1558.6 1946.56 1582.55 2024.72C1558.85 2049.41 1547.62 2086.12 1551.04 2127.78C1554.46 2169.44 1572.28 2213.12 1601.08 2250.42C1665.55 2333.96 1766.99 2363.99 1827.35 2317.41L2064.41 2134.45C2114.74 2095.61 2111.96 2007.56 2058.2 1937.9C2006.78 1871.28 1927.72 1846.12 1876.8 1878.17Z" fill="white" fill-opacity="0.5"/>
<path d="M2208.82 1699.15C2156.97 1648.85 2095.34 1615.09 2034.46 1603.63C1973.59 1592.17 1917.24 1603.72 1875.04 1636.3C1804.74 1690.56 1785.77 1792.21 1816.95 1895.47C1785.27 1928.34 1770.08 1977.01 1774.29 2032.13C1778.49 2087.25 1801.81 2144.92 1839.74 2194.07C1924.68 2304.12 2059.14 2343.06 2139.65 2280.92L2455.88 2036.87C2523.02 1985.06 2520.03 1868.53 2449.2 1776.76C2381.46 1688.99 2276.68 1656.32 2208.82 1699.15Z" fill="white" fill-opacity="0.5"/>
<path d="M2523.67 864.806C2433.98 839.986 2351.81 854.706 2291.21 906.454C2230.6 958.202 2195.32 1043.77 2191.38 1148.53C2184.8 1323.01 2264.75 1518 2387.28 1657.06C2392.22 1750 2425.5 1850.52 2480.72 1939.28C2535.94 2028.05 2609.2 2098.81 2686.43 2137.97C2859.35 2225.66 3006 2134.52 3013.55 1934.69L3043.19 1149.82C3049.48 983.186 2937.57 788.601 2793.38 715.477C2655.47 645.532 2539 712.602 2523.67 864.806Z" fill="white" fill-opacity="0.5"/>
<path d="M1432.67 2064.81C1357.62 1967.74 1265.09 1889.99 1170.88 1844.84C1076.68 1799.69 986.642 1789.94 916.156 1817.27C798.731 1862.73 755.904 2000.84 791.686 2164.82C737.697 2197.49 707.589 2260.75 707.148 2342.44C706.706 2424.12 735.963 2518.47 789.295 2607.36C908.693 2806.39 1115.02 2925.82 1249.51 2873.75L1777.72 2669.22C1889.87 2625.79 1900.08 2455.86 1800.52 2289.9C1705.29 2131.16 1544.81 2034.73 1432.67 2064.81Z" fill="white" fill-opacity="0.5"/>
<path d="M1287.92 1456.49C1280.48 1424.79 1260.16 1396.24 1230.45 1375.72C1200.73 1355.21 1163.46 1343.99 1125 1344C1060.94 1344 1005.3 1374.54 977.592 1419.24C945.012 1422.2 914.882 1435.17 892.992 1455.66C871.102 1476.15 858.996 1502.72 859 1530.25C859 1591.9 918.628 1642 992 1642H1280.17C1341.35 1642 1391 1600.28 1391 1548.88C1391 1499.7 1345.56 1459.85 1287.92 1456.49Z" fill="white" fill-opacity="0.4"/>
<path d="M2216.02 1446.45C2188.34 1405.79 2144.22 1376.57 2091.19 1363.75C2038.15 1350.94 1979.5 1355.34 1925.25 1376.2C1834.87 1410.93 1772.93 1484.15 1758.06 1562.18C1713.7 1584.01 1678.22 1618.63 1658.44 1659.37C1638.66 1700.12 1635.97 1744.13 1650.89 1782.94C1684.28 1869.84 1795.54 1908.13 1899.04 1868.36L2305.56 1712.14C2391.87 1678.97 2439.31 1593.24 2411.47 1520.79C2384.83 1451.48 2299.14 1419.93 2216.02 1446.45Z" fill="white" fill-opacity="0.4"/>
<path d="M1547.99 1562.91C1540.4 1529.4 1519.7 1499.22 1489.43 1477.53C1459.16 1455.84 1421.18 1443.99 1382 1444C1316.73 1444 1260.05 1476.29 1231.82 1523.54C1198.63 1526.66 1167.93 1540.37 1145.63 1562.03C1123.33 1583.69 1111 1611.77 1111 1640.88C1111 1706.04 1171.75 1759 1246.5 1759H1540.08C1602.41 1759 1653 1714.9 1653 1660.56C1653 1608.59 1606.7 1566.46 1547.99 1562.91Z" fill="white" fill-opacity="0.4"/>
<path d="M1912.92 1600.66C1902.8 1556.51 1875.19 1516.75 1834.81 1488.18C1794.42 1459.6 1743.77 1443.99 1691.5 1444C1604.44 1444 1528.82 1486.54 1491.17 1548.79C1446.89 1552.91 1405.95 1570.97 1376.2 1599.5C1346.45 1628.04 1329.99 1665.03 1330 1703.38C1330 1789.23 1411.04 1859 1510.75 1859H1902.38C1985.52 1859 2053 1800.9 2053 1729.31C2053 1660.84 1991.24 1605.33 1912.92 1600.66Z" fill="white" fill-opacity="0.4"/>
<path d="M2657.06 1311.55C2602.32 1265.57 2529.73 1241.76 2451.69 1244.2C2373.65 1246.63 2295.02 1275.15 2229.21 1324.89C2119.58 1407.71 2064.83 1533.2 2076.64 1647.42C2024.8 1694.73 1990.43 1756.43 1980.11 1820.66C1969.8 1884.89 1984.28 1947.13 2020.76 1995.42C2102.44 2103.53 2270.86 2114.31 2396.42 2019.46L2889.56 1646.91C2994.26 1567.82 3023.96 1430.46 2955.85 1340.31C2890.71 1254.07 2760.13 1242.92 2657.06 1311.55Z" fill="white" fill-opacity="0.4"/>
<path d="M1091.47 1486.59C1091.37 1410.81 1066.12 1337.88 1020.05 1280.26C973.977 1222.64 909.934 1183.91 838.86 1170.67C720.484 1148.59 604.519 1199.95 534.069 1293.62C472.592 1289.23 411.332 1308.79 362.059 1348.56C312.786 1388.33 278.976 1445.5 267.126 1509.08C240.576 1651.44 329.184 1787.68 464.763 1812.97L997.248 1912.28C1110.3 1933.36 1220.02 1854.13 1242.16 1735.43C1263.33 1621.89 1196.53 1514.19 1091.47 1486.59Z" fill="white" fill-opacity="0.4"/>
<path d="M1686.53 1860.82C1649.15 1824.82 1604.5 1800.88 1560.21 1793.1C1515.92 1785.31 1474.73 1794.16 1443.68 1818.14C1391.96 1858.06 1377.25 1931.89 1399.1 2006.46C1375.71 2030.55 1364.22 2065.95 1366.81 2105.86C1369.41 2145.77 1385.91 2187.36 1413.15 2222.66C1474.14 2301.68 1571.86 2328.75 1631.1 2283.02L1863.79 2103.45C1913.19 2065.32 1912.01 1980.9 1861.15 1915C1812.51 1851.97 1736.38 1829.2 1686.53 1860.82Z" fill="white" fill-opacity="0.4"/>
<path d="M2426 1269.58C2363.43 1234.71 2298.89 1224.74 2243.39 1241.37C2187.89 1257.99 2144.88 1300.18 2121.71 1360.73C2083.1 1461.57 2105.52 1594.03 2170.7 1703.32C2156.48 1758.95 2162.08 1825.43 2186.42 1889.99C2210.76 1954.55 2252.12 2012.64 2302.56 2053.09C2415.5 2143.67 2543.22 2123.43 2587.45 2007.94L2761.15 1554.36C2798.02 1458.06 2751.53 1318.6 2657.36 1243.07C2567.29 1170.82 2466.88 1183.79 2426 1269.58Z" fill="white" fill-opacity="0.4"/>
<path d="M2001.8 1835.17C1962.52 1796.94 1915.95 1771.15 1870.05 1762.21C1824.15 1753.28 1781.77 1761.75 1750.13 1786.18C1697.43 1826.85 1683.6 1903.56 1707.55 1981.72C1683.85 2006.41 1672.62 2043.12 1676.04 2084.78C1679.46 2126.44 1697.28 2170.12 1726.08 2207.42C1790.55 2290.96 1891.99 2320.99 1952.35 2274.41L2189.41 2091.45C2239.74 2052.61 2236.96 1964.56 2183.2 1894.9C2131.78 1828.28 2052.72 1803.12 2001.8 1835.17Z" fill="white" fill-opacity="0.4"/>
<path d="M2333.82 1656.15C2281.97 1605.85 2220.34 1572.09 2159.46 1560.63C2098.59 1549.17 2042.24 1560.72 2000.04 1593.3C1929.74 1647.56 1910.77 1749.21 1941.95 1852.47C1910.27 1885.34 1895.08 1934.01 1899.29 1989.13C1903.49 2044.25 1926.81 2101.92 1964.74 2151.07C2049.68 2261.12 2184.14 2300.06 2264.65 2237.92L2580.88 1993.87C2648.02 1942.06 2645.03 1825.53 2574.2 1733.76C2506.46 1645.99 2401.68 1613.32 2333.82 1656.15Z" fill="white" fill-opacity="0.4"/>
<path d="M2648.67 821.806C2558.98 796.986 2476.81 811.706 2416.21 863.454C2355.6 915.202 2320.32 1000.77 2316.38 1105.53C2309.8 1280.01 2389.75 1475 2512.28 1614.06C2517.22 1707 2550.5 1807.52 2605.72 1896.28C2660.94 1985.05 2734.2 2055.81 2811.43 2094.97C2984.35 2182.66 3131 2091.52 3138.55 1891.69L3168.19 1106.82C3174.48 940.186 3062.57 745.601 2918.38 672.477C2780.47 602.532 2664 669.602 2648.67 821.806Z" fill="white" fill-opacity="0.4"/>
<path d="M1557.67 2021.81C1482.62 1924.74 1390.09 1846.99 1295.88 1801.84C1201.68 1756.69 1111.64 1746.94 1041.16 1774.27C923.731 1819.73 880.904 1957.84 916.686 2121.82C862.697 2154.49 832.589 2217.75 832.148 2299.44C831.706 2381.12 860.963 2475.47 914.295 2564.36C1033.69 2763.39 1240.02 2882.82 1374.51 2830.75L1902.72 2626.22C2014.87 2582.79 2025.08 2412.86 1925.52 2246.9C1830.29 2088.16 1669.81 1991.73 1557.67 2021.81Z" fill="white" fill-opacity="0.4"/>
<path d="M1122.92 1382.49C1115.48 1350.79 1095.16 1322.24 1065.45 1301.72C1035.73 1281.21 998.462 1269.99 960 1270C895.938 1270 840.3 1300.54 812.592 1345.24C780.012 1348.2 749.882 1361.17 727.992 1381.66C706.102 1402.15 693.996 1428.72 694 1456.25C694 1517.9 753.628 1568 827 1568H1115.17C1176.35 1568 1226 1526.28 1226 1474.88C1226 1425.7 1180.56 1385.85 1122.92 1382.49Z" fill="white" fill-opacity="0.3"/>
<path d="M2051.02 1372.45C2023.34 1331.79 1979.22 1302.57 1926.19 1289.75C1873.15 1276.94 1814.5 1281.34 1760.25 1302.2C1669.87 1336.93 1607.93 1410.15 1593.06 1488.18C1548.7 1510.01 1513.22 1544.63 1493.44 1585.37C1473.66 1626.12 1470.97 1670.13 1485.89 1708.94C1519.28 1795.84 1630.54 1834.13 1734.04 1794.36L2140.56 1638.14C2226.87 1604.97 2274.31 1519.24 2246.47 1446.79C2219.83 1377.48 2134.14 1345.93 2051.02 1372.45Z" fill="white" fill-opacity="0.3"/>
<path d="M1382.99 1488.91C1375.4 1455.4 1354.7 1425.22 1324.43 1403.53C1294.16 1381.84 1256.18 1369.99 1217 1370C1151.73 1370 1095.05 1402.29 1066.82 1449.54C1033.63 1452.66 1002.93 1466.37 980.631 1488.03C958.33 1509.69 945.996 1537.77 946 1566.88C946 1632.04 1006.75 1685 1081.5 1685H1375.08C1437.41 1685 1488 1640.9 1488 1586.56C1488 1534.59 1441.7 1492.46 1382.99 1488.91Z" fill="white" fill-opacity="0.3"/>
<path d="M1747.92 1526.66C1737.8 1482.51 1710.19 1442.75 1669.81 1414.18C1629.42 1385.6 1578.77 1369.99 1526.5 1370C1439.44 1370 1363.82 1412.54 1326.17 1474.79C1281.89 1478.91 1240.95 1496.97 1211.2 1525.5C1181.45 1554.04 1164.99 1591.03 1165 1629.38C1165 1715.23 1246.04 1785 1345.75 1785H1737.38C1820.52 1785 1888 1726.9 1888 1655.31C1888 1586.84 1826.24 1531.33 1747.92 1526.66Z" fill="white" fill-opacity="0.3"/>
<path d="M2492.06 1237.55C2437.32 1191.57 2364.73 1167.76 2286.69 1170.2C2208.65 1172.63 2130.02 1201.15 2064.21 1250.89C1954.58 1333.71 1899.83 1459.2 1911.64 1573.42C1859.8 1620.73 1825.43 1682.43 1815.11 1746.66C1804.8 1810.89 1819.28 1873.13 1855.76 1921.42C1937.44 2029.53 2105.86 2040.31 2231.42 1945.46L2724.56 1572.91C2829.26 1493.82 2858.96 1356.46 2790.85 1266.31C2725.71 1180.07 2595.13 1168.92 2492.06 1237.55Z" fill="white" fill-opacity="0.3"/>
<path d="M926.473 1412.59C926.368 1336.81 901.123 1263.88 855.05 1206.26C808.977 1148.64 744.934 1109.91 673.86 1096.67C555.484 1074.59 439.519 1125.95 369.069 1219.62C307.592 1215.23 246.332 1234.79 197.059 1274.56C147.786 1314.33 113.976 1371.5 102.126 1435.08C75.5763 1577.44 164.184 1713.68 299.763 1738.97L832.248 1838.28C945.299 1859.36 1055.02 1780.13 1077.16 1661.43C1098.33 1547.89 1031.53 1440.19 926.473 1412.59Z" fill="white" fill-opacity="0.3"/>
<path d="M1521.53 1786.82C1484.15 1750.82 1439.5 1726.88 1395.21 1719.1C1350.92 1711.31 1309.73 1720.16 1278.68 1744.14C1226.96 1784.06 1212.25 1857.89 1234.1 1932.46C1210.71 1956.55 1199.22 1991.95 1201.81 2031.86C1204.41 2071.77 1220.91 2113.36 1248.15 2148.66C1309.14 2227.68 1406.86 2254.75 1466.1 2209.02L1698.79 2029.45C1748.19 1991.32 1747.01 1906.9 1696.15 1841C1647.51 1777.97 1571.38 1755.2 1521.53 1786.82Z" fill="white" fill-opacity="0.3"/>
<path d="M2261 1195.58C2198.43 1160.71 2133.89 1150.74 2078.39 1167.37C2022.89 1183.99 1979.88 1226.18 1956.71 1286.73C1918.1 1387.57 1940.52 1520.03 2005.7 1629.32C1991.48 1684.95 1997.08 1751.43 2021.42 1815.99C2045.76 1880.55 2087.12 1938.64 2137.56 1979.09C2250.5 2069.67 2378.22 2049.43 2422.45 1933.94L2596.15 1480.36C2633.02 1384.06 2586.53 1244.6 2492.36 1169.07C2402.29 1096.82 2301.88 1109.79 2261 1195.58Z" fill="white" fill-opacity="0.3"/>
<path d="M1836.8 1761.17C1797.52 1722.94 1750.95 1697.15 1705.05 1688.21C1659.15 1679.28 1616.77 1687.75 1585.13 1712.18C1532.43 1752.85 1518.6 1829.56 1542.55 1907.72C1518.85 1932.41 1507.62 1969.12 1511.04 2010.78C1514.46 2052.44 1532.28 2096.12 1561.08 2133.42C1625.55 2216.96 1726.99 2246.99 1787.35 2200.41L2024.41 2017.45C2074.74 1978.61 2071.96 1890.56 2018.2 1820.9C1966.78 1754.28 1887.72 1729.12 1836.8 1761.17Z" fill="white" fill-opacity="0.3"/>
<path d="M2168.82 1582.15C2116.97 1531.85 2055.34 1498.09 1994.46 1486.63C1933.59 1475.17 1877.24 1486.72 1835.04 1519.3C1764.74 1573.56 1745.77 1675.21 1776.95 1778.47C1745.27 1811.34 1730.08 1860.01 1734.29 1915.13C1738.49 1970.25 1761.81 2027.92 1799.74 2077.07C1884.68 2187.12 2019.14 2226.06 2099.65 2163.92L2415.88 1919.87C2483.02 1868.06 2480.03 1751.53 2409.2 1659.76C2341.46 1571.99 2236.68 1539.32 2168.82 1582.15Z" fill="white" fill-opacity="0.3"/>
<path d="M2483.67 747.806C2393.98 722.986 2311.81 737.706 2251.21 789.454C2190.6 841.202 2155.32 926.767 2151.38 1031.53C2144.8 1206.01 2224.75 1401 2347.28 1540.06C2352.22 1633 2385.5 1733.52 2440.72 1822.28C2495.94 1911.05 2569.2 1981.81 2646.43 2020.97C2819.35 2108.66 2966 2017.52 2973.55 1817.69L3003.19 1032.82C3009.48 866.186 2897.57 671.601 2753.38 598.477C2615.47 528.532 2499 595.602 2483.67 747.806Z" fill="white" fill-opacity="0.3"/>
<path d="M1392.67 1947.81C1317.62 1850.74 1225.09 1772.99 1130.88 1727.84C1036.68 1682.69 946.642 1672.94 876.156 1700.27C758.731 1745.73 715.904 1883.84 751.686 2047.82C697.697 2080.49 667.589 2143.75 667.148 2225.44C666.706 2307.12 695.963 2401.47 749.295 2490.36C868.693 2689.39 1075.02 2808.82 1209.51 2756.75L1737.72 2552.22C1849.87 2508.79 1860.08 2338.86 1760.52 2172.9C1665.29 2014.16 1504.81 1917.73 1392.67 1947.81Z" fill="white" fill-opacity="0.3"/>
<path d="M1233.92 1403.49C1226.48 1371.79 1206.16 1343.24 1176.45 1322.72C1146.73 1302.21 1109.46 1290.99 1071 1291C1006.94 1291 951.3 1321.54 923.592 1366.24C891.012 1369.2 860.882 1382.17 838.992 1402.66C817.102 1423.15 804.996 1449.72 805 1477.25C805 1538.9 864.628 1589 938 1589H1226.17C1287.35 1589 1337 1547.28 1337 1495.88C1337 1446.7 1291.56 1406.85 1233.92 1403.49Z" fill="white" fill-opacity="0.2"/>
<path d="M2162.02 1393.45C2134.34 1352.79 2090.22 1323.57 2037.19 1310.75C1984.15 1297.94 1925.5 1302.34 1871.25 1323.2C1780.87 1357.93 1718.93 1431.15 1704.06 1509.18C1659.7 1531.01 1624.22 1565.63 1604.44 1606.37C1584.66 1647.12 1581.97 1691.13 1596.89 1729.94C1630.28 1816.84 1741.54 1855.13 1845.04 1815.36L2251.56 1659.14C2337.87 1625.97 2385.31 1540.24 2357.47 1467.79C2330.83 1398.48 2245.14 1366.93 2162.02 1393.45Z" fill="white" fill-opacity="0.2"/>
<path d="M1493.99 1509.91C1486.4 1476.4 1465.7 1446.22 1435.43 1424.53C1405.16 1402.84 1367.18 1390.99 1328 1391C1262.73 1391 1206.05 1423.29 1177.82 1470.54C1144.63 1473.66 1113.93 1487.37 1091.63 1509.03C1069.33 1530.69 1057 1558.77 1057 1587.88C1057 1653.04 1117.75 1706 1192.5 1706H1486.08C1548.41 1706 1599 1661.9 1599 1607.56C1599 1555.59 1552.7 1513.46 1493.99 1509.91Z" fill="white" fill-opacity="0.2"/>
<path d="M1858.92 1547.66C1848.8 1503.51 1821.19 1463.75 1780.81 1435.18C1740.42 1406.6 1689.77 1390.99 1637.5 1391C1550.44 1391 1474.82 1433.54 1437.17 1495.79C1392.89 1499.91 1351.95 1517.97 1322.2 1546.5C1292.45 1575.04 1275.99 1612.03 1276 1650.38C1276 1736.23 1357.04 1806 1456.75 1806H1848.38C1931.52 1806 1999 1747.9 1999 1676.31C1999 1607.84 1937.24 1552.33 1858.92 1547.66Z" fill="white" fill-opacity="0.2"/>
<path d="M2603.06 1258.55C2548.32 1212.57 2475.73 1188.76 2397.69 1191.2C2319.65 1193.63 2241.02 1222.15 2175.21 1271.89C2065.58 1354.71 2010.83 1480.2 2022.64 1594.42C1970.8 1641.73 1936.43 1703.43 1926.11 1767.66C1915.8 1831.89 1930.28 1894.13 1966.76 1942.42C2048.44 2050.53 2216.86 2061.31 2342.42 1966.46L2835.56 1593.91C2940.26 1514.82 2969.96 1377.46 2901.85 1287.31C2836.71 1201.07 2706.13 1189.92 2603.06 1258.55Z" fill="white" fill-opacity="0.2"/>
<path d="M1037.47 1433.59C1037.37 1357.81 1012.12 1284.88 966.05 1227.26C919.977 1169.64 855.934 1130.91 784.86 1117.67C666.484 1095.59 550.519 1146.95 480.069 1240.62C418.592 1236.23 357.332 1255.79 308.059 1295.56C258.786 1335.33 224.976 1392.5 213.126 1456.08C186.576 1598.44 275.184 1734.68 410.763 1759.97L943.248 1859.28C1056.3 1880.36 1166.02 1801.13 1188.16 1682.43C1209.33 1568.89 1142.53 1461.19 1037.47 1433.59Z" fill="white" fill-opacity="0.2"/>
<path d="M1632.53 1807.82C1595.15 1771.82 1550.5 1747.88 1506.21 1740.1C1461.92 1732.31 1420.73 1741.16 1389.68 1765.14C1337.96 1805.06 1323.25 1878.89 1345.1 1953.46C1321.71 1977.55 1310.22 2012.95 1312.81 2052.86C1315.41 2092.77 1331.91 2134.36 1359.15 2169.66C1420.14 2248.68 1517.86 2275.75 1577.1 2230.02L1809.79 2050.45C1859.19 2012.32 1858.01 1927.9 1807.15 1862C1758.51 1798.97 1682.38 1776.2 1632.53 1807.82Z" fill="white" fill-opacity="0.2"/>
<path d="M2372 1216.58C2309.43 1181.71 2244.89 1171.74 2189.39 1188.37C2133.89 1204.99 2090.88 1247.18 2067.71 1307.73C2029.1 1408.57 2051.52 1541.03 2116.7 1650.32C2102.48 1705.95 2108.08 1772.43 2132.42 1836.99C2156.76 1901.55 2198.12 1959.64 2248.56 2000.09C2361.5 2090.67 2489.22 2070.43 2533.45 1954.94L2707.15 1501.36C2744.02 1405.06 2697.53 1265.6 2603.36 1190.07C2513.29 1117.82 2412.88 1130.79 2372 1216.58Z" fill="white" fill-opacity="0.2"/>
<path d="M1947.8 1782.17C1908.52 1743.94 1861.95 1718.15 1816.05 1709.21C1770.15 1700.28 1727.77 1708.75 1696.13 1733.18C1643.43 1773.85 1629.6 1850.56 1653.55 1928.72C1629.85 1953.41 1618.62 1990.12 1622.04 2031.78C1625.46 2073.44 1643.28 2117.12 1672.08 2154.42C1736.55 2237.96 1837.99 2267.99 1898.35 2221.41L2135.41 2038.45C2185.74 1999.61 2182.96 1911.56 2129.2 1841.9C2077.78 1775.28 1998.72 1750.12 1947.8 1782.17Z" fill="white" fill-opacity="0.2"/>
<path d="M2279.82 1603.15C2227.97 1552.85 2166.34 1519.09 2105.46 1507.63C2044.59 1496.17 1988.24 1507.72 1946.04 1540.3C1875.74 1594.56 1856.77 1696.21 1887.95 1799.47C1856.27 1832.34 1841.08 1881.01 1845.29 1936.13C1849.49 1991.25 1872.81 2048.92 1910.74 2098.07C1995.68 2208.12 2130.14 2247.06 2210.65 2184.92L2526.88 1940.87C2594.02 1889.06 2591.03 1772.53 2520.2 1680.76C2452.46 1592.99 2347.68 1560.32 2279.82 1603.15Z" fill="white" fill-opacity="0.2"/>
<path d="M2594.67 768.806C2504.98 743.986 2422.81 758.706 2362.21 810.454C2301.6 862.202 2266.32 947.767 2262.38 1052.53C2255.8 1227.01 2335.75 1422 2458.28 1561.06C2463.22 1654 2496.5 1754.52 2551.72 1843.28C2606.94 1932.05 2680.2 2002.81 2757.43 2041.97C2930.35 2129.66 3077 2038.52 3084.55 1838.69L3114.19 1053.82C3120.48 887.186 3008.57 692.601 2864.38 619.477C2726.47 549.532 2610 616.602 2594.67 768.806Z" fill="white" fill-opacity="0.2"/>
<path d="M1503.67 1968.81C1428.62 1871.74 1336.09 1793.99 1241.88 1748.84C1147.68 1703.69 1057.64 1693.94 987.156 1721.27C869.731 1766.73 826.904 1904.84 862.686 2068.82C808.697 2101.49 778.589 2164.75 778.148 2246.44C777.706 2328.12 806.963 2422.47 860.295 2511.36C979.693 2710.39 1186.02 2829.82 1320.51 2777.75L1848.72 2573.22C1960.87 2529.79 1971.08 2359.86 1871.52 2193.9C1776.29 2035.16 1615.81 1938.73 1503.67 1968.81Z" fill="white" fill-opacity="0.2"/>
<path d="M1068.92 1321.49C1061.48 1289.79 1041.16 1261.24 1011.45 1240.72C981.733 1220.21 944.462 1208.99 906 1209C841.938 1209 786.3 1239.54 758.592 1284.24C726.012 1287.2 695.882 1300.17 673.992 1320.66C652.102 1341.15 639.996 1367.72 640 1395.25C640 1456.9 699.628 1507 773 1507H1061.17C1122.35 1507 1172 1465.28 1172 1413.88C1172 1364.7 1126.56 1324.85 1068.92 1321.49Z" fill="white" fill-opacity="0.1"/>
<path d="M1997.02 1311.45C1969.34 1270.79 1925.22 1241.57 1872.19 1228.75C1819.15 1215.94 1760.5 1220.34 1706.25 1241.2C1615.87 1275.93 1553.93 1349.15 1539.06 1427.18C1494.7 1449.01 1459.22 1483.63 1439.44 1524.37C1419.66 1565.12 1416.97 1609.13 1431.89 1647.94C1465.28 1734.84 1576.54 1773.13 1680.04 1733.36L2086.56 1577.14C2172.87 1543.97 2220.31 1458.24 2192.47 1385.79C2165.83 1316.48 2080.14 1284.93 1997.02 1311.45Z" fill="white" fill-opacity="0.1"/>
<path d="M1328.99 1427.91C1321.4 1394.4 1300.7 1364.22 1270.43 1342.53C1240.16 1320.84 1202.18 1308.99 1163 1309C1097.73 1309 1041.05 1341.29 1012.82 1388.54C979.629 1391.66 948.933 1405.37 926.631 1427.03C904.33 1448.69 891.996 1476.77 892 1505.88C892 1571.04 952.749 1624 1027.5 1624H1321.08C1383.41 1624 1434 1579.9 1434 1525.56C1434 1473.59 1387.7 1431.46 1328.99 1427.91Z" fill="white" fill-opacity="0.1"/>
<path d="M1693.92 1465.66C1683.8 1421.51 1656.19 1381.75 1615.81 1353.18C1575.42 1324.6 1524.77 1308.99 1472.5 1309C1385.44 1309 1309.82 1351.54 1272.17 1413.79C1227.89 1417.91 1186.95 1435.97 1157.2 1464.5C1127.45 1493.04 1110.99 1530.03 1111 1568.38C1111 1654.23 1192.04 1724 1291.75 1724H1683.38C1766.52 1724 1834 1665.9 1834 1594.31C1834 1525.84 1772.24 1470.33 1693.92 1465.66Z" fill="white" fill-opacity="0.1"/>
<path d="M2438.06 1176.55C2383.32 1130.57 2310.73 1106.76 2232.69 1109.2C2154.65 1111.63 2076.02 1140.15 2010.21 1189.89C1900.58 1272.71 1845.83 1398.2 1857.64 1512.42C1805.8 1559.73 1771.43 1621.43 1761.11 1685.66C1750.8 1749.89 1765.28 1812.13 1801.76 1860.42C1883.44 1968.53 2051.86 1979.31 2177.42 1884.46L2670.56 1511.91C2775.26 1432.82 2804.96 1295.46 2736.85 1205.31C2671.71 1119.07 2541.13 1107.92 2438.06 1176.55Z" fill="white" fill-opacity="0.1"/>
<path d="M872.473 1351.59C872.368 1275.81 847.123 1202.88 801.05 1145.26C754.977 1087.64 690.934 1048.91 619.86 1035.67C501.484 1013.59 385.519 1064.95 315.069 1158.62C253.592 1154.23 192.332 1173.79 143.059 1213.56C93.7861 1253.33 59.9761 1310.5 48.1256 1374.08C21.5763 1516.44 110.184 1652.68 245.763 1677.97L778.248 1777.28C891.299 1798.36 1001.02 1719.13 1023.16 1600.43C1044.33 1486.89 977.526 1379.19 872.473 1351.59Z" fill="white" fill-opacity="0.1"/>
<path d="M1467.53 1725.82C1430.15 1689.82 1385.5 1665.88 1341.21 1658.1C1296.92 1650.31 1255.73 1659.16 1224.68 1683.14C1172.96 1723.06 1158.25 1796.89 1180.1 1871.46C1156.71 1895.55 1145.22 1930.95 1147.81 1970.86C1150.41 2010.77 1166.91 2052.36 1194.15 2087.66C1255.14 2166.68 1352.86 2193.75 1412.1 2148.02L1644.79 1968.45C1694.19 1930.32 1693.01 1845.9 1642.15 1780C1593.51 1716.97 1517.38 1694.2 1467.53 1725.82Z" fill="white" fill-opacity="0.1"/>
<path d="M2207 1134.58C2144.43 1099.71 2079.89 1089.74 2024.39 1106.37C1968.89 1122.99 1925.88 1165.18 1902.71 1225.73C1864.1 1326.57 1886.52 1459.03 1951.7 1568.32C1937.48 1623.95 1943.08 1690.43 1967.42 1754.99C1991.76 1819.55 2033.12 1877.64 2083.56 1918.09C2196.5 2008.67 2324.22 1988.43 2368.45 1872.94L2542.15 1419.36C2579.02 1323.06 2532.53 1183.6 2438.36 1108.07C2348.29 1035.82 2247.88 1048.79 2207 1134.58Z" fill="white" fill-opacity="0.1"/>
<path d="M1782.8 1700.17C1743.52 1661.94 1696.95 1636.15 1651.05 1627.21C1605.15 1618.28 1562.77 1626.75 1531.13 1651.18C1478.43 1691.85 1464.6 1768.56 1488.55 1846.72C1464.85 1871.41 1453.62 1908.12 1457.04 1949.78C1460.46 1991.44 1478.28 2035.12 1507.08 2072.42C1571.55 2155.96 1672.99 2185.99 1733.35 2139.41L1970.41 1956.45C2020.74 1917.61 2017.96 1829.56 1964.2 1759.9C1912.78 1693.28 1833.72 1668.12 1782.8 1700.17Z" fill="white" fill-opacity="0.1"/>
<path d="M2114.82 1521.15C2062.97 1470.85 2001.34 1437.09 1940.46 1425.63C1879.59 1414.17 1823.24 1425.72 1781.04 1458.3C1710.74 1512.56 1691.77 1614.21 1722.95 1717.47C1691.27 1750.34 1676.08 1799.01 1680.29 1854.13C1684.49 1909.25 1707.81 1966.92 1745.74 2016.07C1830.68 2126.12 1965.14 2165.06 2045.65 2102.92L2361.88 1858.87C2429.02 1807.06 2426.03 1690.53 2355.2 1598.76C2287.46 1510.99 2182.68 1478.32 2114.82 1521.15Z" fill="white" fill-opacity="0.1"/>
<path d="M2429.67 686.806C2339.98 661.986 2257.81 676.706 2197.21 728.454C2136.6 780.202 2101.32 865.767 2097.38 970.533C2090.8 1145.01 2170.75 1340 2293.28 1479.06C2298.22 1572 2331.5 1672.52 2386.72 1761.28C2441.94 1850.05 2515.2 1920.81 2592.43 1959.97C2765.35 2047.66 2912 1956.52 2919.55 1756.69L2949.19 971.819C2955.48 805.186 2843.57 610.601 2699.38 537.477C2561.47 467.532 2445 534.602 2429.67 686.806Z" fill="white" fill-opacity="0.1"/>
<path d="M1338.67 1886.81C1263.62 1789.74 1171.09 1711.99 1076.88 1666.84C982.677 1621.69 892.642 1611.94 822.156 1639.27C704.731 1684.73 661.904 1822.84 697.686 1986.82C643.697 2019.49 613.589 2082.75 613.148 2164.44C612.706 2246.12 641.963 2340.47 695.295 2429.36C814.693 2628.39 1021.02 2747.82 1155.51 2695.75L1683.72 2491.22C1795.87 2447.79 1806.08 2277.86 1706.52 2111.9C1611.29 1953.16 1450.81 1856.73 1338.67 1886.81Z" fill="white" fill-opacity="0.1"/>
<path d="M1149.92 1542.49C1142.48 1510.79 1122.16 1482.24 1092.45 1461.72C1062.73 1441.21 1025.46 1429.99 987 1430C922.938 1430 867.3 1460.54 839.592 1505.24C807.012 1508.2 776.882 1521.17 754.992 1541.66C733.102 1562.15 720.996 1588.72 721 1616.25C721 1677.9 780.628 1728 854 1728H1142.17C1203.35 1728 1253 1686.28 1253 1634.88C1253 1585.7 1207.56 1545.85 1149.92 1542.49Z" fill="white"/>
<path d="M2078.02 1532.45C2050.34 1491.79 2006.22 1462.57 1953.19 1449.75C1900.15 1436.94 1841.5 1441.34 1787.25 1462.2C1696.87 1496.93 1634.93 1570.15 1620.06 1648.18C1575.7 1670.01 1540.22 1704.63 1520.44 1745.37C1500.66 1786.12 1497.97 1830.13 1512.89 1868.94C1546.28 1955.84 1657.54 1994.13 1761.04 1954.36L2167.56 1798.14C2253.87 1764.97 2301.31 1679.24 2273.47 1606.79C2246.83 1537.48 2161.14 1505.93 2078.02 1532.45Z" fill="white"/>
<path d="M1409.99 1648.91C1402.4 1615.4 1381.7 1585.22 1351.43 1563.53C1321.16 1541.84 1283.18 1529.99 1244 1530C1178.73 1530 1122.05 1562.29 1093.82 1609.54C1060.63 1612.66 1029.93 1626.37 1007.63 1648.03C985.33 1669.69 972.996 1697.77 973 1726.88C973 1792.04 1033.75 1845 1108.5 1845H1402.08C1464.41 1845 1515 1800.9 1515 1746.56C1515 1694.59 1468.7 1652.46 1409.99 1648.91Z" fill="white"/>
<path d="M1774.92 1686.66C1764.8 1642.51 1737.19 1602.75 1696.81 1574.18C1656.42 1545.6 1605.77 1529.99 1553.5 1530C1466.44 1530 1390.82 1572.54 1353.17 1634.79C1308.89 1638.91 1267.95 1656.97 1238.2 1685.5C1208.45 1714.04 1191.99 1751.03 1192 1789.38C1192 1875.23 1273.04 1945 1372.75 1945H1764.38C1847.52 1945 1915 1886.9 1915 1815.31C1915 1746.84 1853.24 1691.33 1774.92 1686.66Z" fill="white"/>
<path d="M2519.06 1397.55C2464.32 1351.57 2391.73 1327.76 2313.69 1330.2C2235.65 1332.63 2157.02 1361.15 2091.21 1410.89C1981.58 1493.71 1926.83 1619.2 1938.64 1733.42C1886.8 1780.73 1852.43 1842.43 1842.11 1906.66C1831.8 1970.89 1846.28 2033.13 1882.76 2081.42C1964.44 2189.53 2132.86 2200.31 2258.42 2105.46L2751.56 1732.91C2856.26 1653.82 2885.96 1516.46 2817.85 1426.31C2752.71 1340.07 2622.13 1328.92 2519.06 1397.55Z" fill="white"/>
<path d="M953.473 1572.59C953.368 1496.81 928.123 1423.88 882.05 1366.26C835.977 1308.64 771.934 1269.91 700.86 1256.67C582.484 1234.59 466.519 1285.95 396.069 1379.62C334.592 1375.23 273.332 1394.79 224.059 1434.56C174.786 1474.33 140.976 1531.5 129.126 1595.08C102.576 1737.44 191.184 1873.68 326.763 1898.97L859.248 1998.28C972.299 2019.36 1082.02 1940.13 1104.16 1821.43C1125.33 1707.89 1058.53 1600.19 953.473 1572.59Z" fill="white"/>
<path d="M1608.53 1910.82C1571.15 1874.82 1526.5 1850.88 1482.21 1843.1C1437.92 1835.31 1396.73 1844.16 1365.68 1868.14C1313.96 1908.06 1299.25 1981.89 1321.1 2056.46C1297.71 2080.55 1286.22 2115.95 1288.81 2155.86C1291.41 2195.77 1307.91 2237.36 1335.15 2272.66C1396.14 2351.68 1493.86 2378.75 1553.1 2333.02L1785.79 2153.45C1835.19 2115.32 1834.01 2030.9 1783.15 1965C1734.51 1901.97 1658.38 1879.2 1608.53 1910.82Z" fill="white"/>
<path d="M2348 1319.58C2285.43 1284.71 2220.89 1274.74 2165.39 1291.37C2109.89 1307.99 2066.88 1350.18 2043.71 1410.73C2005.1 1511.57 2027.52 1644.03 2092.7 1753.32C2078.48 1808.95 2084.08 1875.43 2108.42 1939.99C2132.76 2004.55 2174.12 2062.64 2224.56 2103.09C2337.5 2193.67 2465.22 2173.43 2509.45 2057.94L2683.15 1604.36C2720.02 1508.06 2673.53 1368.6 2579.36 1293.07C2489.29 1220.82 2388.88 1233.79 2348 1319.58Z" fill="white"/>
<path d="M1923.8 1885.17C1884.52 1846.94 1837.95 1821.15 1792.05 1812.21C1746.15 1803.28 1703.77 1811.75 1672.13 1836.18C1619.43 1876.85 1605.6 1953.56 1629.55 2031.72C1605.85 2056.41 1594.62 2093.12 1598.04 2134.78C1601.46 2176.44 1619.28 2220.12 1648.08 2257.42C1712.55 2340.96 1813.99 2370.99 1874.35 2324.41L2111.41 2141.45C2161.74 2102.61 2158.96 2014.56 2105.2 1944.9C2053.78 1878.28 1974.72 1853.12 1923.8 1885.17Z" fill="white"/>
<path d="M2255.82 1706.15C2203.97 1655.85 2142.34 1622.09 2081.46 1610.63C2020.59 1599.17 1964.24 1610.72 1922.04 1643.3C1851.74 1697.56 1832.77 1799.21 1863.95 1902.47C1832.27 1935.34 1817.08 1984.01 1821.29 2039.13C1825.49 2094.25 1848.81 2151.92 1886.74 2201.07C1971.68 2311.12 2106.14 2350.06 2186.65 2287.92L2502.88 2043.87C2570.02 1992.06 2567.03 1875.53 2496.2 1783.76C2428.46 1695.99 2323.68 1663.32 2255.82 1706.15Z" fill="white"/>
<path d="M2570.67 871.806C2480.98 846.986 2398.81 861.706 2338.21 913.454C2277.6 965.202 2242.32 1050.77 2238.38 1155.53C2231.8 1330.01 2311.75 1525 2434.28 1664.06C2439.22 1757 2472.5 1857.52 2527.72 1946.28C2582.94 2035.05 2656.2 2105.81 2733.43 2144.97C2906.35 2232.66 3053 2141.52 3060.55 1941.69L3090.19 1156.82C3096.48 990.186 2984.57 795.601 2840.38 722.477C2702.47 652.532 2586 719.602 2570.67 871.806Z" fill="white"/>
<path d="M1479.67 2071.81C1404.62 1974.74 1312.09 1896.99 1217.88 1851.84C1123.68 1806.69 1033.64 1796.94 963.156 1824.27C845.731 1869.73 802.904 2007.84 838.686 2171.82C784.697 2204.49 754.589 2267.75 754.148 2349.44C753.706 2431.12 782.963 2525.47 836.295 2614.36C955.693 2813.39 1162.02 2932.82 1296.51 2880.75L1824.72 2676.22C1936.87 2632.79 1947.08 2462.86 1847.52 2296.9C1752.29 2138.16 1591.81 2041.73 1479.67 2071.81Z" fill="white"/>
</svg>
